<?xml version="1.0" encoding="utf-8"?>
<!-- Generator: Adobe Illustrator 26.3.0, SVG Export Plug-In . SVG Version: 6.00 Build 0)  -->
<svg version="1.1" xmlns="http://www.w3.org/2000/svg" xmlns:xlink="http://www.w3.org/1999/xlink" x="0px" y="0px"
	 viewBox="0 0 3000 3000" style="enable-background:new 0 0 3000 3000;" xml:space="preserve">
<style type="text/css">
	.st0{display:none;}
	.st1{display:inline;}
	.st2{fill:#121A26;}
	.st3{display:none;fill:#FFFFFF;}
	.st4{fill:#E8C988;}
</style>
<g id="Layer_2" class="st0">
	<rect x="3099.58" y="649.54" class="st1" width="1640" height="624"/>
</g>
<g id="Layer_5">
	<rect x="-3.62" y="0" class="st2" width="3000" height="3000"/>
</g>
<g id="Layer_6" class="st0">
	<rect x="3503.88" y="1331.72" class="st1" width="1080" height="1080"/>
</g>
<g id="Layer_3">
	<rect x="0" y="0" class="st3" width="3000" height="3000"/>
	<g id="Layer_4">
	</g>
	<g>
		<path class="st4" d="M1785.92,1706.24c82.46-76.76,130.08-173.74,143.91-290.43h0.72v-5.53c2.37-21.77,3.98-43.98,3.98-67.15
			c0-22.14-1.3-43.39-3.29-64.2l-0.69-0.34v-86.06c-72.95-45.38-163.17-68.08-270.62-68.08c-89.7,0-164.65,25.16-224.76,75.42
			c-60.18,50.29-90.25,114.42-90.25,192.28c0,60.11,16.51,112.64,49.57,157.47c33.03,44.87,72.95,81.09,119.78,108.72
			c33.81,19.91,67.94,38.76,101.99,57.64c-59.56,57.78-135.19,87.13-227.4,87.13h-16.27c-38.45,0-67.05-9.17-85.79-27.4
			c-18.71-18.26-28.08-49.06-28.08-92.42V889.15h90.22c128.12,0,226.23,41.92,294.24,125.72c13.87,17.06,25.95,35.63,37.01,55.1
			c48.85-11.74,110.65-14.93,184.49,1c-20.43-33.23-44.83-63.79-74.32-90.84c-96.12-88.26-237.36-132.34-423.67-132.34h-341.62
			v16.24c40.41,20.7,60.63,73.43,60.63,158.23v647.77c0,84.76-20.22,137.49-60.63,158.23v16.24h340.11
			C1546.57,1844.48,1686.84,1798.41,1785.92,1706.24 M1492.81,1313.74c0-42.4,14.32-77.38,42.91-104.98
			c28.56-27.57,67.01-41.37,115.31-41.37c25.1,0,49.61,4.77,73.57,14.07c13.46,51.32,20.63,107.93,20.63,170.59
			c0,77.21-10.75,145.56-31.55,205.7c-16.92-9.58-33.85-19.5-50.81-28.84c-47.31-26.09-87.51-56.95-120.5-92.42
			C1509.36,1400.98,1492.81,1360.09,1492.81,1313.74"/>
		<path class="st4" d="M1925.37,1716.71c-7.66-10.16-15.76-19.77-24.2-29.04c-35.53,60.9-88.71,104.43-134.54,132.96
			c3.09,3.12,6.42,6.08,9.41,9.27c33.03,35.46,49.54,76.35,49.54,122.69c0,44.39-15.07,81.6-45.11,111.64
			c-30.07,30.11-72.71,44.63-127.91,43.63c-56.2,0-109.2-22.42-158.98-67.29c-49.78-44.83-90.46-110.13-122.01-195.92h-17.71v230.7
			c89.67,51.25,187.78,76.86,294.24,76.86c100.55,0,180.2-26.36,238.87-79.1c58.64-52.73,87.99-120.53,87.99-203.34
			C1974.94,1811.63,1958.42,1760.58,1925.37,1716.71"/>
	</g>
</g>
</svg>
